<svg viewBox="0 0 100 100" xmlns="http://www.w3.org/2000/svg"><style>.fill-dark{fill:#111}.fill-light{fill:#EBEBEB}</style><path d="M6.75 99.97.2 100l39.6-27.04 6.22.02zm13.51 0-6.57.03L53.3 72.96l6.21.02zm13.52 0-6.57.03 39.61-27.04 6.21.02zm13.51 0-6.57.03 39.61-27.04 6.22.02zm13.51 0-6.57.03 39.62-27.04 6.2.02z" class="fill-dark"/><path d="M29.82 0H100v72.96H29.82z" class="fill-light"/><path d="M42.75 18.74c.21 2.5.05 4.94 0 7.57l1.74-.05c1.59 0 2.6.85 2.7 3.15.21 3.53.16 10.4 0 14.02-.05 1.88-.74 2.82-2.7 2.82l-1.69-.05q.32 4 0 8c2.06-.19 16.18-.19 18.4 0 0-2.54-.15-5.46 0-8h-2.59c-1.85 0-2.64-1.12-2.7-2.91-.1-2.26-.1-4.23-.1-6.87 0-2.35-.21-5.27-.69-7.9l.59-.23c2.32 5.17 4.7 10.81 6.02 15.66 2.33-.2 3.7-.14 5.3-.1 1.16-3.67 3.7-9.87 6.18-15.61l.63.05a169.23 150.5 0 0 0-.74 15.05c0 1.78-1.16 2.91-3.01 2.91l-2.43-.05c0 2.54.16 5.37 0 8 1.9-.19 16.5-.19 19.04 0a66 66 0 0 1 0-7.9l-1.22.04c-2.38 0-3.12-1.08-3.17-2.86-.16-3.95.05-10.96.26-14.86 0-1.6 1.59-2.4 3.17-2.4l1.33.04c-.27-2.77-.22-4.84-.16-7.52-2.12.19-14.07 0-16.08 0-.53 2.07-3.33 8.93-5.71 13.4-2.38-4.23-5.08-10.96-5.4-13.4-2.38.19-14.7.19-16.92 0M0 93.26l29.92-20.42V.08L0 20.51z" class="fill-dark"/>
</svg>