<svg viewBox="0 0 28 40" xmlns="http://www.w3.org/2000/svg" xml:space="preserve" style="fill:var(--primary-color);fill-rule:evenodd;clip-rule:evenodd;stroke-linejoin:round;stroke-miterlimit:2"><path d="M23.373 17.06c1.648.313 2.81 1.007 3.488 2.087.678 1.081 1.017 2.785 1.017 5.11 0 4.617-1.387 8.394-4.163 11.333C20.942 38.53 17.392 40 13.069 40a13.75 13.75 0 0 1-4.958-.921c-1.6-.612-2.98-1.47-4.133-2.567-1.32-1.21-2.309-2.488-2.968-3.833-.658-1.346-.989-2.724-.989-4.136 0-1.575.34-2.792 1.017-3.652.678-.863 1.75-1.449 3.214-1.758a15.044 15.044 0 0 1-.604-1.623c-.13-.438-.193-.778-.193-1.015 0-.825.434-1.667 1.304-2.53.872-.86 1.69-1.289 2.46-1.289.33 0 .677.059 1.045.179a6.9 6.9 0 0 1 1.263.59C8.116 13.453 7.091 10.37 6.45 8.2c-.64-2.168-.961-3.666-.961-4.491 0-1.135.293-2.038.88-2.706C6.952.334 7.75 0 8.757 0c1.721 0 3.901 3.847 6.539 11.539.457 1.32.804 2.335 1.043 3.05.201-.568.485-1.374.85-2.417C19.829 4.55 22.1.742 24.004.742c.936 0 1.681.317 2.241.947.558.633.837 1.48.837 2.541 0 .807-.307 2.281-.92 4.424-.613 2.143-1.543 4.944-2.788 8.407Zm-1.979-.468c1.229-3.331 2.185-6.083 2.872-8.254.687-2.171 1.029-3.503 1.029-3.997 0-.533-.115-.943-.342-1.236-.23-.293-.546-.44-.95-.44-.51 0-1.034.426-1.563 1.277-.533.851-1.119 2.22-1.759 4.107l-2.747 7.94 3.46.603Zm-6.759-.933-2.965-8.57c-.769-2.181-1.364-3.604-1.786-4.272-.422-.67-.88-1.004-1.374-1.004-.385 0-.696.146-.933.439-.24.293-.359.687-.359 1.181 0 .844.321 2.31.961 4.396.643 2.089 1.604 4.827 2.886 8.214a.927.927 0 0 1 .467-.426c.201-.082.475-.122.825-.122.11 0 .328.01.659.026.33.018.87.065 1.62.138Zm3.107 8.325a16.892 16.892 0 0 1-2.24-.249 11.697 11.697 0 0 1-2.02-.548c.293.586.556 1.172.783 1.758.23.586.417 1.163.563 1.73.44-.549.902-1.048 1.388-1.496.485-.45.993-.848 1.526-1.195Zm-14.04 4.285c.257.312.614.769 1.07 1.374 1.21 1.667 2.329 2.499 3.353 2.499.347 0 .659-.11.933-.328.277-.22.413-.45.413-.687 0-.275-.183-.734-.549-1.374-.365-.642-.87-1.364-1.512-2.17-.731-.934-1.34-1.616-1.826-2.047-.485-.432-.874-.645-1.167-.645-.64 0-1.231.342-1.773 1.029-.539.687-.81 1.498-.81 2.431 0 .75.19 1.59.564 2.513.375.926.92 1.854 1.634 2.79a10.908 10.908 0 0 0 4.025 3.338c1.601.778 3.374 1.168 5.315 1.168 3.573 0 6.562-1.334 8.97-3.997 2.41-2.666 3.614-6.004 3.614-10.015 0-1.226-.094-2.202-.277-2.926-.182-.722-.485-1.25-.904-1.58-.753-.621-2.213-1.182-4.384-1.676a30.489 30.489 0 0 0-6.799-.741c-.659 0-1.125.11-1.402.33-.274.219-.41.596-.41 1.126 0 1.245.696 2.147 2.087 2.705 1.392.56 3.645.84 6.758.84h1.128c.255 0 .462.095.616.288.157.192.263.48.317.865-.312.293-.952.628-1.923 1.003-.97.375-1.713.746-2.227 1.111a9.874 9.874 0 0 0-2.649 2.872c-.67 1.109-1.003 2.157-1.003 3.146 0 .605.14 1.332.424 2.183.286.853.427 1.378.427 1.58v.192l-.054.249c-.806-.057-1.444-.528-1.91-1.416-.467-.889-.702-2.075-.702-3.557v-.248c-.145.129-.288.22-.424.274a1.19 1.19 0 0 1-.455.084c-.164 0-.318-.014-.466-.042a4.762 4.762 0 0 1-.495-.124 4.749 4.749 0 0 1 .167 1.046c0 .677-.268 1.258-.797 1.744a2.716 2.716 0 0 1-1.897.726c-1.153 0-2.326-.562-3.516-1.687-1.191-1.128-1.787-2.232-1.787-3.313 0-.202.024-.38.07-.534a.898.898 0 0 1 .233-.399Zm8.242.659c.312 0 .596-.14.851-.425.258-.286.385-.59.385-.92 0-.348-.251-1.159-.755-2.432a24.294 24.294 0 0 0-1.883-3.75c-.548-.915-1.09-1.607-1.62-2.073-.532-.47-1.036-.701-1.512-.701-.384 0-.809.241-1.277.727-.467.485-.699.94-.699 1.36 0 .44.227 1.099.687 1.978.457.879 1.071 1.812 1.84 2.801.804 1.081 1.566 1.925 2.279 2.528.715.604 1.282.907 1.704.907Z"/></svg>